<?xml version="1.0" encoding="UTF-8" standalone="no"?>
<svg
   version="1.1"
   width="256"
   height="256"
   viewBox="0 0 256 256"
   xml:space="preserve"
   id="svg5"
   sodipodi:docname="new.svg"
   inkscape:version="1.4.2 (ebf0e940, 2025-05-08)"
   xmlns:inkscape="http://www.inkscape.org/namespaces/inkscape"
   xmlns:sodipodi="http://sodipodi.sourceforge.net/DTD/sodipodi-0.dtd"
   xmlns="http://www.w3.org/2000/svg"
   xmlns:svg="http://www.w3.org/2000/svg"><defs
   id="defs5" /><sodipodi:namedview
   id="namedview5"
   pagecolor="#ffffff"
   bordercolor="#666666"
   borderopacity="1.0"
   inkscape:showpageshadow="2"
   inkscape:pageopacity="0.0"
   inkscape:pagecheckerboard="0"
   inkscape:deskcolor="#d1d1d1"
   inkscape:zoom="0.4"
   inkscape:cx="130"
   inkscape:cy="206.25"
   inkscape:window-width="1304"
   inkscape:window-height="706"
   inkscape:window-x="0"
   inkscape:window-y="38"
   inkscape:window-maximized="0"
   inkscape:current-layer="g5" />
<g
   style="stroke: none; stroke-width: 0; stroke-dasharray: none; stroke-linecap: butt; stroke-linejoin: miter; stroke-miterlimit: 10; fill: none; fill-rule: nonzero; opacity: 1;"
   transform="translate(1.4065934065934016 1.4065934065934016) scale(2.81 2.81)"
   id="g5">
	<path
   d="M 49.41 3.09 l 5.45 7.412 c 1.308 1.779 3.558 2.598 5.704 2.076 l 8.939 -2.175 c 3.588 -0.873 6.993 1.985 6.757 5.67 l -0.589 9.181 c -0.141 2.204 1.056 4.277 3.035 5.257 l 8.246 4.08 c 3.31 1.638 4.082 6.016 1.532 8.687 l -6.353 6.654 c -1.525 1.598 -1.941 3.955 -1.054 5.978 l 3.694 8.426 c 1.483 3.382 -0.74 7.232 -4.41 7.639 l -9.144 1.014 c -2.195 0.243 -4.029 1.782 -4.65 3.902 l -2.586 8.829 c -1.038 3.544 -5.215 5.064 -8.289 3.017 l -7.657 -5.101 c -1.838 -1.225 -4.232 -1.225 -6.07 0 l -7.657 5.101 c -3.073 2.047 -7.25 0.527 -8.289 -3.017 l -2.586 -8.829 c -0.621 -2.12 -2.455 -3.658 -4.65 -3.902 l -9.144 -1.014 c -3.67 -0.407 -5.893 -4.257 -4.41 -7.639 l 3.694 -8.426 c 0.887 -2.023 0.471 -4.38 -1.054 -5.978 l -6.353 -6.654 c -2.55 -2.671 -1.778 -7.049 1.532 -8.687 l 8.246 -4.08 c 1.98 -0.98 3.177 -3.053 3.035 -5.257 l -0.589 -9.181 c -0.237 -3.685 3.169 -6.543 6.757 -5.67 l 8.939 2.175 c 2.146 0.522 4.396 -0.297 5.704 -2.076 l 5.45 -7.412 C 42.777 0.115 47.223 0.115 49.41 3.09 z"
   style="stroke:none;stroke-width:1;stroke-dasharray:none;stroke-linecap:butt;stroke-linejoin:miter;stroke-miterlimit:10;fill:#656565;fill-rule:nonzero;opacity:1;fill-opacity:1"
   transform=" matrix(1 0 0 1 0 0) "
   stroke-linecap="round"
   id="path1" />
	<path
   d="M 29.879 54.538 c -0.404 0 -0.793 -0.196 -1.031 -0.543 L 19.75 40.741 v 12.547 c 0 0.69 -0.56 1.25 -1.25 1.25 s -1.25 -0.56 -1.25 -1.25 V 36.711 c 0 -0.548 0.356 -1.032 0.88 -1.194 c 0.52 -0.163 1.09 0.035 1.401 0.486 l 9.099 13.255 V 36.711 c 0 -0.69 0.56 -1.25 1.25 -1.25 s 1.25 0.56 1.25 1.25 v 16.577 c 0 0.548 -0.356 1.031 -0.88 1.194 C 30.127 54.52 30.003 54.538 29.879 54.538 z"
   style="stroke: none; stroke-width: 1; stroke-dasharray: none; stroke-linecap: butt; stroke-linejoin: miter; stroke-miterlimit: 10; fill: rgb(255,255,255); fill-rule: nonzero; opacity: 1;"
   transform=" matrix(1 0 0 1 0 0) "
   stroke-linecap="round"
   id="path2" />
	<path
   d="M 46.575 54.538 h -8.439 c -0.69 0 -1.25 -0.56 -1.25 -1.25 V 36.711 c 0 -0.69 0.56 -1.25 1.25 -1.25 h 8.439 c 0.69 0 1.25 0.56 1.25 1.25 s -0.56 1.25 -1.25 1.25 h -7.189 v 14.077 h 7.189 c 0.69 0 1.25 0.56 1.25 1.25 S 47.266 54.538 46.575 54.538 z"
   style="stroke: none; stroke-width: 1; stroke-dasharray: none; stroke-linecap: butt; stroke-linejoin: miter; stroke-miterlimit: 10; fill: rgb(255,255,255); fill-rule: nonzero; opacity: 1;"
   transform=" matrix(1 0 0 1 0 0) "
   stroke-linecap="round"
   id="path3" />
	<path
   d="M 45.123 46.25 h -6.987 c -0.69 0 -1.25 -0.56 -1.25 -1.25 s 0.56 -1.25 1.25 -1.25 h 6.987 c 0.69 0 1.25 0.56 1.25 1.25 S 45.813 46.25 45.123 46.25 z"
   style="stroke: none; stroke-width: 1; stroke-dasharray: none; stroke-linecap: butt; stroke-linejoin: miter; stroke-miterlimit: 10; fill: rgb(255,255,255); fill-rule: nonzero; opacity: 1;"
   transform=" matrix(1 0 0 1 0 0) "
   stroke-linecap="round"
   id="path4" />
	<path
   d="M 56.533 54.538 c -0.057 0 -0.113 -0.004 -0.171 -0.012 c -0.528 -0.073 -0.953 -0.474 -1.056 -0.997 l -3.259 -16.577 c -0.133 -0.677 0.308 -1.334 0.985 -1.468 c 0.681 -0.133 1.335 0.309 1.468 0.985 l 2.559 13.013 l 4.212 -8.318 c 0.213 -0.42 0.645 -0.685 1.115 -0.685 s 0.902 0.265 1.115 0.685 l 4.213 8.318 l 2.559 -13.013 c 0.133 -0.677 0.797 -1.117 1.468 -0.985 c 0.678 0.133 1.118 0.791 0.985 1.468 l -3.26 16.577 c -0.103 0.523 -0.527 0.924 -1.056 0.997 c -0.53 0.074 -1.045 -0.197 -1.286 -0.674 l -4.738 -9.356 l -4.738 9.356 C 57.434 54.277 57 54.538 56.533 54.538 z"
   style="stroke: none; stroke-width: 1; stroke-dasharray: none; stroke-linecap: butt; stroke-linejoin: miter; stroke-miterlimit: 10; fill: rgb(255,255,255); fill-rule: nonzero; opacity: 1;"
   transform=" matrix(1 0 0 1 0 0) "
   stroke-linecap="round"
   id="path5" />
</g>
</svg>
